<svg xmlns="http://www.w3.org/2000/svg" width="500" height="500" viewBox="0 0 500 500">
  <g>
    <path d="M436.00,468.00 L435.00,469.00 L434.00,469.00 L431.00,472.00 L431.00,473.00 L430.00,474.00 L430.00,480.00 L431.00,481.00 L431.00,482.00 L434.00,485.00 L435.00,485.00 L436.00,486.00 L442.00,486.00 L443.00,485.00 L444.00,485.00 L447.00,482.00 L447.00,481.00 L448.00,480.00 L448.00,474.00 L447.00,473.00 L447.00,472.00 L444.00,469.00 L443.00,469.00 L442.00,468.00 Z" fill="#FFFFFF" fill-rule="evenodd" />
    <path d="M398.00,468.00 L397.00,469.00 L396.00,469.00 L393.00,472.00 L393.00,473.00 L392.00,474.00 L392.00,480.00 L393.00,481.00 L393.00,482.00 L396.00,485.00 L397.00,485.00 L398.00,486.00 L404.00,486.00 L405.00,485.00 L406.00,485.00 L409.00,482.00 L409.00,481.00 L410.00,480.00 L410.00,474.00 L409.00,473.00 L409.00,472.00 L406.00,469.00 L405.00,469.00 L404.00,468.00 Z" fill="#FFFFFF" fill-rule="evenodd" />
    <path d="M454.00,449.00 L450.00,453.00 L450.00,454.00 L449.00,455.00 L449.00,462.00 L453.00,466.00 L454.00,466.00 L455.00,467.00 L467.00,467.00 L468.00,468.00 L468.00,481.00 L472.00,485.00 L473.00,485.00 L474.00,486.00 L481.00,486.00 L485.00,482.00 L485.00,481.00 L486.00,480.00 L486.00,454.00 L482.00,450.00 L481.00,450.00 L480.00,449.00 Z" fill="#FFFFFF" fill-rule="evenodd" />
    <path d="M265.00,430.00 L264.00,431.00 L263.00,431.00 L260.00,434.00 L260.00,435.00 L259.00,436.00 L259.00,442.00 L260.00,443.00 L260.00,444.00 L263.00,447.00 L264.00,447.00 L265.00,448.00 L271.00,448.00 L272.00,447.00 L273.00,447.00 L276.00,444.00 L276.00,443.00 L277.00,442.00 L277.00,436.00 L276.00,435.00 L276.00,434.00 L273.00,431.00 L272.00,431.00 L271.00,430.00 Z" fill="#FFFFFF" fill-rule="evenodd" />
    <path d="M164.00,398.00 L164.00,481.00 L170.00,486.00 L367.00,486.00 L372.00,480.00 L372.00,468.00 L386.00,467.00 L391.00,461.00 L391.00,454.00 L387.00,450.00 L372.00,448.00 L372.00,435.00 L368.00,431.00 L359.00,430.00 L354.00,436.00 L353.00,468.00 L335.00,468.00 L334.00,454.00 L328.00,449.00 L321.00,449.00 L317.00,453.00 L315.00,468.00 L297.00,468.00 L296.00,454.00 L290.00,449.00 L283.00,449.00 L279.00,453.00 L277.00,468.00 L259.00,468.00 L258.00,454.00 L252.00,449.00 L245.00,449.00 L241.00,453.00 L239.00,468.00 L221.00,468.00 L220.00,454.00 L214.00,449.00 L207.00,449.00 L203.00,453.00 L201.00,468.00 L183.00,468.00 L182.00,397.00 L176.00,392.00 L169.00,392.00 Z" fill="#FFFFFF" fill-rule="evenodd" />
    <path d="M50.00,392.00 L50.00,448.00 L106.00,448.00 L106.00,392.00 Z" fill="#FFFFFF" fill-rule="evenodd" />
    <path d="M360.00,354.00 L359.00,355.00 L358.00,355.00 L355.00,358.00 L355.00,359.00 L354.00,360.00 L354.00,366.00 L355.00,367.00 L355.00,368.00 L358.00,371.00 L359.00,371.00 L360.00,372.00 L366.00,372.00 L367.00,371.00 L368.00,371.00 L371.00,368.00 L371.00,367.00 L372.00,366.00 L372.00,360.00 L371.00,359.00 L371.00,358.00 L368.00,355.00 L367.00,355.00 L366.00,354.00 Z" fill="#FFFFFF" fill-rule="evenodd" />
    <path d="M30.00,363.00 L19.00,375.00 L14.00,385.00 L12.00,393.00 L12.00,448.00 L14.00,455.00 L21.00,468.00 L33.00,479.00 L43.00,484.00 L51.00,486.00 L106.00,486.00 L113.00,484.00 L126.00,477.00 L137.00,465.00 L142.00,455.00 L144.00,447.00 L144.00,392.00 L142.00,385.00 L135.00,372.00 L123.00,361.00 L113.00,356.00 L105.00,354.00 L50.00,354.00 L43.00,356.00 Z M43.00,377.00 L49.00,374.00 L57.00,373.00 L58.00,372.00 L98.00,372.00 L99.00,373.00 L104.00,373.00 L113.00,377.00 L121.00,385.00 L124.00,391.00 L125.00,399.00 L126.00,400.00 L126.00,440.00 L125.00,441.00 L125.00,446.00 L121.00,455.00 L113.00,463.00 L107.00,466.00 L99.00,467.00 L98.00,468.00 L58.00,468.00 L57.00,467.00 L52.00,467.00 L43.00,463.00 L35.00,455.00 L32.00,449.00 L31.00,441.00 L30.00,440.00 L30.00,400.00 L31.00,399.00 L31.00,394.00 L35.00,385.00 Z" fill="#FFFFFF" fill-rule="evenodd" />
    <path d="M265.00,316.00 L264.00,317.00 L263.00,317.00 L260.00,320.00 L260.00,321.00 L259.00,322.00 L259.00,328.00 L260.00,329.00 L260.00,330.00 L263.00,333.00 L264.00,333.00 L265.00,334.00 L271.00,334.00 L272.00,333.00 L273.00,333.00 L276.00,330.00 L276.00,329.00 L277.00,328.00 L277.00,322.00 L276.00,321.00 L276.00,320.00 L273.00,317.00 L272.00,317.00 L271.00,316.00 Z" fill="#FFFFFF" fill-rule="evenodd" />
    <path d="M188.00,316.00 L183.00,322.00 L183.00,353.00 L182.00,354.00 L169.00,354.00 L164.00,360.00 L164.00,367.00 L170.00,372.00 L201.00,372.00 L202.00,373.00 L202.00,386.00 L208.00,391.00 L220.00,391.00 L221.00,392.00 L221.00,410.00 L220.00,411.00 L207.00,411.00 L202.00,417.00 L202.00,424.00 L208.00,429.00 L234.00,429.00 L239.00,423.00 L239.00,378.00 L233.00,373.00 L221.00,373.00 L220.00,372.00 L220.00,359.00 L214.00,354.00 L202.00,354.00 L201.00,353.00 L201.00,335.00 L202.00,334.00 L215.00,334.00 L220.00,328.00 L220.00,321.00 L214.00,316.00 Z" fill="#FFFFFF" fill-rule="evenodd" />
    <path d="M132.00,316.00 L131.00,317.00 L130.00,317.00 L127.00,320.00 L127.00,321.00 L126.00,322.00 L126.00,328.00 L127.00,329.00 L127.00,330.00 L130.00,333.00 L131.00,333.00 L132.00,334.00 L138.00,334.00 L139.00,333.00 L140.00,333.00 L143.00,330.00 L143.00,329.00 L144.00,328.00 L144.00,322.00 L143.00,321.00 L143.00,320.00 L140.00,317.00 L139.00,317.00 L138.00,316.00 Z" fill="#FFFFFF" fill-rule="evenodd" />
    <path d="M94.00,316.00 L93.00,317.00 L92.00,317.00 L89.00,320.00 L89.00,321.00 L88.00,322.00 L88.00,328.00 L89.00,329.00 L89.00,330.00 L92.00,333.00 L93.00,333.00 L94.00,334.00 L100.00,334.00 L101.00,333.00 L102.00,333.00 L105.00,330.00 L105.00,329.00 L106.00,328.00 L106.00,322.00 L105.00,321.00 L105.00,320.00 L102.00,317.00 L101.00,317.00 L100.00,316.00 Z" fill="#FFFFFF" fill-rule="evenodd" />
    <path d="M151.00,297.00 L150.00,298.00 L149.00,298.00 L146.00,301.00 L146.00,302.00 L145.00,303.00 L145.00,309.00 L146.00,310.00 L146.00,311.00 L149.00,314.00 L150.00,314.00 L151.00,315.00 L157.00,315.00 L158.00,314.00 L159.00,314.00 L162.00,311.00 L162.00,310.00 L163.00,309.00 L163.00,303.00 L162.00,302.00 L162.00,301.00 L159.00,298.00 L158.00,298.00 L157.00,297.00 Z" fill="#FFFFFF" fill-rule="evenodd" />
    <path d="M56.00,297.00 L55.00,298.00 L54.00,298.00 L51.00,301.00 L51.00,302.00 L50.00,303.00 L50.00,309.00 L51.00,310.00 L51.00,311.00 L54.00,314.00 L55.00,314.00 L56.00,315.00 L62.00,315.00 L63.00,314.00 L64.00,314.00 L67.00,311.00 L67.00,310.00 L68.00,309.00 L68.00,303.00 L67.00,302.00 L67.00,301.00 L64.00,298.00 L63.00,298.00 L62.00,297.00 Z" fill="#FFFFFF" fill-rule="evenodd" />
    <path d="M474.00,278.00 L473.00,279.00 L472.00,279.00 L469.00,282.00 L469.00,283.00 L468.00,284.00 L468.00,290.00 L469.00,291.00 L469.00,292.00 L472.00,295.00 L473.00,295.00 L474.00,296.00 L480.00,296.00 L481.00,295.00 L482.00,295.00 L485.00,292.00 L485.00,291.00 L486.00,290.00 L486.00,284.00 L485.00,283.00 L485.00,282.00 L482.00,279.00 L481.00,279.00 L480.00,278.00 Z" fill="#FFFFFF" fill-rule="evenodd" />
    <path d="M140.00,279.00 L139.00,279.00 L138.00,278.00 L112.00,278.00 L108.00,282.00 L108.00,283.00 L107.00,284.00 L107.00,310.00 L111.00,314.00 L112.00,314.00 L113.00,315.00 L119.00,315.00 L120.00,314.00 L121.00,314.00 L124.00,311.00 L124.00,310.00 L125.00,309.00 L125.00,297.00 L126.00,296.00 L139.00,296.00 L143.00,292.00 L143.00,291.00 L144.00,290.00 L144.00,283.00 Z" fill="#FFFFFF" fill-rule="evenodd" />
    <path d="M18.00,278.00 L17.00,279.00 L16.00,279.00 L13.00,282.00 L13.00,283.00 L12.00,284.00 L12.00,290.00 L13.00,291.00 L13.00,292.00 L16.00,295.00 L17.00,295.00 L18.00,296.00 L24.00,296.00 L25.00,295.00 L26.00,295.00 L29.00,292.00 L29.00,291.00 L30.00,290.00 L30.00,284.00 L29.00,283.00 L29.00,282.00 L26.00,279.00 L25.00,279.00 L24.00,278.00 Z" fill="#FFFFFF" fill-rule="evenodd" />
    <path d="M69.00,265.00 L69.00,272.00 L73.00,276.00 L74.00,276.00 L75.00,277.00 L101.00,277.00 L105.00,273.00 L105.00,272.00 L106.00,271.00 L106.00,264.00 L102.00,260.00 L101.00,260.00 L100.00,259.00 L74.00,259.00 L70.00,263.00 L70.00,264.00 Z" fill="#FFFFFF" fill-rule="evenodd" />
    <path d="M37.00,259.00 L36.00,260.00 L35.00,260.00 L32.00,263.00 L32.00,264.00 L31.00,265.00 L31.00,271.00 L32.00,272.00 L32.00,273.00 L35.00,276.00 L36.00,276.00 L37.00,277.00 L43.00,277.00 L44.00,276.00 L45.00,276.00 L48.00,273.00 L48.00,272.00 L49.00,271.00 L49.00,265.00 L48.00,264.00 L48.00,263.00 L45.00,260.00 L44.00,260.00 L43.00,259.00 Z" fill="#FFFFFF" fill-rule="evenodd" />
    <path d="M246.00,240.00 L245.00,241.00 L244.00,241.00 L241.00,244.00 L241.00,245.00 L240.00,246.00 L240.00,252.00 L241.00,253.00 L241.00,254.00 L244.00,257.00 L245.00,257.00 L246.00,258.00 L252.00,258.00 L253.00,257.00 L254.00,257.00 L257.00,254.00 L257.00,253.00 L258.00,252.00 L258.00,246.00 L257.00,245.00 L257.00,244.00 L254.00,241.00 L253.00,241.00 L252.00,240.00 Z" fill="#FFFFFF" fill-rule="evenodd" />
    <path d="M132.00,240.00 L131.00,241.00 L130.00,241.00 L127.00,244.00 L127.00,245.00 L126.00,246.00 L126.00,252.00 L127.00,253.00 L127.00,254.00 L130.00,257.00 L131.00,257.00 L132.00,258.00 L138.00,258.00 L139.00,257.00 L140.00,257.00 L143.00,254.00 L143.00,253.00 L144.00,252.00 L144.00,246.00 L143.00,245.00 L143.00,244.00 L140.00,241.00 L139.00,241.00 L138.00,240.00 Z" fill="#FFFFFF" fill-rule="evenodd" />
    <path d="M75.00,202.00 L74.00,203.00 L73.00,203.00 L70.00,206.00 L70.00,207.00 L69.00,208.00 L69.00,214.00 L70.00,215.00 L70.00,216.00 L73.00,219.00 L74.00,219.00 L75.00,220.00 L81.00,220.00 L82.00,219.00 L83.00,219.00 L86.00,216.00 L86.00,215.00 L87.00,214.00 L87.00,208.00 L86.00,207.00 L86.00,206.00 L83.00,203.00 L82.00,203.00 L81.00,202.00 Z" fill="#FFFFFF" fill-rule="evenodd" />
    <path d="M17.00,202.00 L13.00,206.00 L13.00,207.00 L12.00,208.00 L12.00,253.00 L16.00,257.00 L17.00,257.00 L18.00,258.00 L25.00,258.00 L29.00,254.00 L29.00,253.00 L30.00,252.00 L30.00,240.00 L31.00,239.00 L44.00,239.00 L48.00,235.00 L48.00,234.00 L49.00,233.00 L49.00,226.00 L45.00,222.00 L44.00,222.00 L43.00,221.00 L31.00,221.00 L30.00,220.00 L30.00,207.00 L26.00,203.00 L25.00,203.00 L24.00,202.00 Z" fill="#FFFFFF" fill-rule="evenodd" />
    <path d="M216.00,184.00 L215.00,184.00 L214.00,183.00 L207.00,183.00 L203.00,187.00 L203.00,188.00 L202.00,189.00 L202.00,201.00 L201.00,202.00 L188.00,202.00 L184.00,206.00 L184.00,207.00 L183.00,208.00 L183.00,215.00 L187.00,219.00 L188.00,219.00 L189.00,220.00 L215.00,220.00 L219.00,216.00 L219.00,215.00 L220.00,214.00 L220.00,188.00 Z" fill="#FFFFFF" fill-rule="evenodd" />
    <path d="M203.00,282.00 L202.00,291.00 L220.00,296.00 L227.00,315.00 L238.00,311.00 L240.00,296.00 L296.00,296.00 L303.00,315.00 L314.00,311.00 L316.00,296.00 L335.00,297.00 L335.00,315.00 L316.00,322.00 L315.00,354.00 L259.00,354.00 L254.00,336.00 L240.00,341.00 L244.00,371.00 L297.00,373.00 L297.00,391.00 L278.00,398.00 L282.00,409.00 L315.00,410.00 L322.00,429.00 L348.00,429.00 L354.00,410.00 L429.00,410.00 L430.00,443.00 L436.00,448.00 L448.00,442.00 L449.00,410.00 L467.00,410.00 L474.00,429.00 L485.00,425.00 L482.00,393.00 L449.00,392.00 L444.00,374.00 L410.00,372.00 L410.00,335.00 L424.00,334.00 L430.00,315.00 L449.00,316.00 L453.00,371.00 L485.00,368.00 L482.00,355.00 L467.00,353.00 L467.00,335.00 L481.00,334.00 L486.00,321.00 L468.00,316.00 L463.00,298.00 L416.00,297.00 L410.00,316.00 L373.00,316.00 L372.00,302.00 L354.00,297.00 L349.00,279.00 L334.00,277.00 L334.00,259.00 L353.00,258.00 L358.00,276.00 L391.00,277.00 L392.00,291.00 L405.00,296.00 L410.00,264.00 L391.00,258.00 L391.00,240.00 L409.00,235.00 L411.00,201.00 L430.00,202.00 L430.00,239.00 L412.00,244.00 L415.00,257.00 L481.00,258.00 L486.00,245.00 L467.00,239.00 L467.00,221.00 L481.00,220.00 L486.00,207.00 L467.00,201.00 L463.00,165.00 L435.00,164.00 L429.00,183.00 L411.00,183.00 L410.00,169.00 L397.00,164.00 L391.00,202.00 L340.00,202.00 L335.00,239.00 L316.00,246.00 L315.00,278.00 L278.00,278.00 L271.00,259.00 L260.00,263.00 L258.00,278.00 L240.00,278.00 L239.00,264.00 L226.00,259.00 L221.00,277.00 Z M334.00,335.00 L335.00,334.00 L391.00,334.00 L392.00,335.00 L392.00,391.00 L391.00,392.00 L335.00,392.00 L334.00,391.00 Z" fill="#FFFFFF" fill-rule="evenodd" />
    <path d="M335.00,170.00 L335.00,177.00 L339.00,181.00 L340.00,181.00 L341.00,182.00 L367.00,182.00 L371.00,178.00 L371.00,177.00 L372.00,176.00 L372.00,169.00 L368.00,165.00 L367.00,165.00 L366.00,164.00 L340.00,164.00 L336.00,168.00 L336.00,169.00 Z" fill="#FFFFFF" fill-rule="evenodd" />
    <path d="M221.00,170.00 L221.00,177.00 L227.00,182.00 L258.00,182.00 L259.00,183.00 L259.00,201.00 L258.00,202.00 L245.00,202.00 L240.00,208.00 L240.00,215.00 L246.00,220.00 L258.00,220.00 L259.00,221.00 L259.00,234.00 L265.00,239.00 L291.00,239.00 L296.00,233.00 L296.00,221.00 L297.00,220.00 L310.00,220.00 L315.00,214.00 L315.00,202.00 L316.00,201.00 L329.00,201.00 L334.00,195.00 L334.00,188.00 L330.00,184.00 L315.00,182.00 L315.00,169.00 L309.00,164.00 L302.00,164.00 L297.00,170.00 L297.00,201.00 L296.00,202.00 L278.00,202.00 L277.00,201.00 L277.00,169.00 L271.00,164.00 L226.00,164.00 Z" fill="#FFFFFF" fill-rule="evenodd" />
    <path d="M12.00,170.00 L12.00,177.00 L18.00,182.00 L49.00,182.00 L50.00,196.00 L56.00,201.00 L63.00,201.00 L67.00,197.00 L69.00,182.00 L87.00,182.00 L88.00,196.00 L94.00,201.00 L107.00,202.00 L107.00,220.00 L93.00,221.00 L88.00,227.00 L88.00,234.00 L92.00,238.00 L120.00,239.00 L125.00,233.00 L126.00,220.00 L144.00,220.00 L145.00,234.00 L151.00,239.00 L163.00,239.00 L164.00,253.00 L170.00,258.00 L182.00,258.00 L183.00,272.00 L189.00,277.00 L196.00,277.00 L200.00,273.00 L202.00,258.00 L215.00,258.00 L220.00,252.00 L220.00,245.00 L214.00,240.00 L183.00,240.00 L182.00,226.00 L176.00,221.00 L163.00,220.00 L163.00,202.00 L177.00,201.00 L182.00,195.00 L182.00,188.00 L176.00,183.00 L164.00,183.00 L163.00,169.00 L157.00,164.00 L131.00,164.00 L126.00,170.00 L126.00,177.00 L130.00,181.00 L145.00,183.00 L144.00,202.00 L126.00,202.00 L125.00,188.00 L119.00,183.00 L107.00,183.00 L106.00,169.00 L100.00,164.00 L17.00,164.00 Z" fill="#FFFFFF" fill-rule="evenodd" />
    <path d="M322.00,126.00 L321.00,127.00 L320.00,127.00 L317.00,130.00 L317.00,131.00 L316.00,132.00 L316.00,138.00 L317.00,139.00 L317.00,140.00 L320.00,143.00 L321.00,143.00 L322.00,144.00 L328.00,144.00 L329.00,143.00 L330.00,143.00 L333.00,140.00 L333.00,139.00 L334.00,138.00 L334.00,132.00 L333.00,131.00 L333.00,130.00 L330.00,127.00 L329.00,127.00 L328.00,126.00 Z" fill="#FFFFFF" fill-rule="evenodd" />
    <path d="M283.00,126.00 L279.00,130.00 L279.00,131.00 L278.00,132.00 L278.00,158.00 L282.00,162.00 L283.00,162.00 L284.00,163.00 L291.00,163.00 L295.00,159.00 L295.00,158.00 L296.00,157.00 L296.00,131.00 L292.00,127.00 L291.00,127.00 L290.00,126.00 Z" fill="#FFFFFF" fill-rule="evenodd" />
    <path d="M303.00,107.00 L302.00,108.00 L301.00,108.00 L298.00,111.00 L298.00,112.00 L297.00,113.00 L297.00,119.00 L298.00,120.00 L298.00,121.00 L301.00,124.00 L302.00,124.00 L303.00,125.00 L309.00,125.00 L310.00,124.00 L311.00,124.00 L314.00,121.00 L314.00,120.00 L315.00,119.00 L315.00,113.00 L314.00,112.00 L314.00,111.00 L311.00,108.00 L310.00,108.00 L309.00,107.00 Z" fill="#FFFFFF" fill-rule="evenodd" />
    <path d="M245.00,107.00 L241.00,111.00 L241.00,112.00 L240.00,113.00 L240.00,139.00 L244.00,143.00 L245.00,143.00 L246.00,144.00 L253.00,144.00 L257.00,140.00 L257.00,139.00 L258.00,138.00 L258.00,112.00 L254.00,108.00 L253.00,108.00 L252.00,107.00 Z" fill="#FFFFFF" fill-rule="evenodd" />
    <path d="M321.00,69.00 L317.00,73.00 L317.00,74.00 L316.00,75.00 L316.00,101.00 L320.00,105.00 L321.00,105.00 L322.00,106.00 L329.00,106.00 L333.00,102.00 L333.00,101.00 L334.00,100.00 L334.00,74.00 L330.00,70.00 L329.00,70.00 L328.00,69.00 Z" fill="#FFFFFF" fill-rule="evenodd" />
    <path d="M392.00,50.00 L392.00,106.00 L448.00,106.00 L448.00,50.00 Z" fill="#FFFFFF" fill-rule="evenodd" />
    <path d="M50.00,50.00 L50.00,106.00 L106.00,106.00 L106.00,50.00 Z" fill="#FFFFFF" fill-rule="evenodd" />
    <path d="M311.00,32.00 L310.00,32.00 L309.00,31.00 L302.00,31.00 L298.00,35.00 L298.00,36.00 L297.00,37.00 L297.00,49.00 L296.00,50.00 L283.00,50.00 L279.00,54.00 L279.00,55.00 L278.00,56.00 L278.00,63.00 L282.00,67.00 L283.00,67.00 L284.00,68.00 L310.00,68.00 L314.00,64.00 L314.00,63.00 L315.00,62.00 L315.00,36.00 Z" fill="#FFFFFF" fill-rule="evenodd" />
    <path d="M169.00,31.00 L164.00,37.00 L164.00,63.00 L170.00,68.00 L183.00,69.00 L183.00,87.00 L169.00,88.00 L164.00,94.00 L164.00,101.00 L170.00,106.00 L182.00,106.00 L183.00,120.00 L187.00,124.00 L202.00,126.00 L202.00,144.00 L183.00,145.00 L182.00,131.00 L176.00,126.00 L169.00,126.00 L164.00,132.00 L164.00,158.00 L170.00,163.00 L215.00,163.00 L220.00,157.00 L220.00,74.00 L214.00,69.00 L202.00,69.00 L201.00,55.00 L195.00,50.00 L183.00,50.00 L182.00,36.00 L176.00,31.00 Z" fill="#FFFFFF" fill-rule="evenodd" />
    <path d="M372.00,21.00 L361.00,33.00 L356.00,43.00 L354.00,51.00 L354.00,106.00 L356.00,113.00 L363.00,126.00 L375.00,137.00 L385.00,142.00 L393.00,144.00 L448.00,144.00 L455.00,142.00 L468.00,135.00 L479.00,123.00 L484.00,113.00 L486.00,105.00 L486.00,50.00 L484.00,43.00 L477.00,30.00 L465.00,19.00 L455.00,14.00 L447.00,12.00 L392.00,12.00 L385.00,14.00 Z M385.00,35.00 L391.00,32.00 L399.00,31.00 L400.00,30.00 L440.00,30.00 L441.00,31.00 L446.00,31.00 L455.00,35.00 L463.00,43.00 L466.00,49.00 L467.00,57.00 L468.00,58.00 L468.00,98.00 L467.00,99.00 L467.00,104.00 L463.00,113.00 L455.00,121.00 L449.00,124.00 L441.00,125.00 L440.00,126.00 L400.00,126.00 L399.00,125.00 L394.00,125.00 L385.00,121.00 L377.00,113.00 L374.00,107.00 L373.00,99.00 L372.00,98.00 L372.00,58.00 L373.00,57.00 L373.00,52.00 L377.00,43.00 Z" fill="#FFFFFF" fill-rule="evenodd" />
    <path d="M322.00,12.00 L321.00,13.00 L320.00,13.00 L317.00,16.00 L317.00,17.00 L316.00,18.00 L316.00,24.00 L317.00,25.00 L317.00,26.00 L320.00,29.00 L321.00,29.00 L322.00,30.00 L328.00,30.00 L329.00,29.00 L330.00,29.00 L333.00,26.00 L333.00,25.00 L334.00,24.00 L334.00,18.00 L333.00,17.00 L333.00,16.00 L330.00,13.00 L329.00,13.00 L328.00,12.00 Z" fill="#FFFFFF" fill-rule="evenodd" />
    <path d="M284.00,12.00 L283.00,13.00 L282.00,13.00 L279.00,16.00 L279.00,17.00 L278.00,18.00 L278.00,24.00 L279.00,25.00 L279.00,26.00 L282.00,29.00 L283.00,29.00 L284.00,30.00 L290.00,30.00 L291.00,29.00 L292.00,29.00 L295.00,26.00 L295.00,25.00 L296.00,24.00 L296.00,18.00 L295.00,17.00 L295.00,16.00 L292.00,13.00 L291.00,13.00 L290.00,12.00 Z" fill="#FFFFFF" fill-rule="evenodd" />
    <path d="M207.00,12.00 L202.00,18.00 L202.00,25.00 L208.00,30.00 L220.00,30.00 L221.00,31.00 L221.00,63.00 L227.00,68.00 L239.00,68.00 L240.00,69.00 L240.00,82.00 L246.00,87.00 L258.00,87.00 L259.00,88.00 L259.00,101.00 L265.00,106.00 L291.00,106.00 L296.00,100.00 L296.00,93.00 L290.00,88.00 L278.00,88.00 L277.00,87.00 L277.00,74.00 L271.00,69.00 L259.00,69.00 L258.00,68.00 L258.00,50.00 L259.00,49.00 L272.00,49.00 L277.00,43.00 L277.00,36.00 L271.00,31.00 L240.00,31.00 L239.00,30.00 L239.00,17.00 L233.00,12.00 Z" fill="#FFFFFF" fill-rule="evenodd" />
    <path d="M30.00,21.00 L19.00,33.00 L14.00,43.00 L12.00,51.00 L12.00,106.00 L14.00,113.00 L21.00,126.00 L33.00,137.00 L43.00,142.00 L51.00,144.00 L106.00,144.00 L113.00,142.00 L126.00,135.00 L137.00,123.00 L142.00,113.00 L144.00,105.00 L144.00,50.00 L142.00,43.00 L135.00,30.00 L123.00,19.00 L113.00,14.00 L105.00,12.00 L50.00,12.00 L43.00,14.00 Z M43.00,35.00 L49.00,32.00 L57.00,31.00 L58.00,30.00 L98.00,30.00 L99.00,31.00 L104.00,31.00 L113.00,35.00 L121.00,43.00 L124.00,49.00 L125.00,57.00 L126.00,58.00 L126.00,98.00 L125.00,99.00 L125.00,104.00 L121.00,113.00 L113.00,121.00 L107.00,124.00 L99.00,125.00 L98.00,126.00 L58.00,126.00 L57.00,125.00 L52.00,125.00 L43.00,121.00 L35.00,113.00 L32.00,107.00 L31.00,99.00 L30.00,98.00 L30.00,58.00 L31.00,57.00 L31.00,52.00 L35.00,43.00 Z" fill="#FFFFFF" fill-rule="evenodd" />
  </g>
</svg>